<svg width="30" height="30" viewBox="0 0 30 30" fill="none" xmlns="http://www.w3.org/2000/svg">
<path fill-rule="evenodd" clip-rule="evenodd" d="M0 15C0 6.72886 6.72886 0 15 0C23.2711 0 30 6.72886 30 15C30 23.2711 23.2711 30 15 30C6.72886 30 0 23.2711 0 15ZM6.65002 11.6114C6.65002 10.2311 7.76592 9.11145 9.14334 9.11145C10.5208 9.11145 11.6367 10.2311 11.6367 11.6114C11.6367 12.9916 10.5208 14.1113 9.14334 14.1113C7.76592 14.1113 6.65002 12.9916 6.65002 11.6114ZM18.01 11.6114C18.01 10.2311 19.1259 9.11145 20.5033 9.11145C21.8807 9.11145 22.9967 10.2311 22.9967 11.6114C22.9967 12.9916 21.8807 14.1113 20.5033 14.1113C19.1259 14.1113 18.01 12.9916 18.01 11.6114ZM8.73036 18.8817C12.0911 22.2517 17.5603 22.2517 20.9209 18.8816C21.364 18.4369 22.0841 18.4369 22.5271 18.8817C22.9697 19.3258 22.9696 20.0449 22.5269 20.4889C20.4707 22.5509 17.734 23.6877 14.8255 23.6877C11.9171 23.6877 9.18074 22.5512 7.12418 20.4889C6.68148 20.0449 6.68142 19.3258 7.124 18.8817M8.73036 18.8817C8.28736 18.437 7.56704 18.4371 7.124 18.8817H8.73036Z" fill="#FF558B"/>
</svg>
