<svg width="30" height="30" viewBox="0 0 30 30" fill="none" xmlns="http://www.w3.org/2000/svg">
<path fill-rule="evenodd" clip-rule="evenodd" d="M0 15C0 6.72886 6.72886 0 15 0C23.2711 0 30 6.72886 30 15C30 23.2711 23.2711 30 15 30C6.72886 30 0 23.2711 0 15ZM6.22287 13.1882C7.27355 14.2935 8.98529 14.5836 10.3702 13.7911C11.7551 12.9987 12.3724 11.3761 11.9519 9.91018C11.7713 9.28063 11.0606 9.14809 10.5852 9.42009C10.0751 9.71194 9.97659 10.331 10.0021 10.7679C10.0304 11.2519 9.78862 11.7339 9.33994 11.9906C8.89126 12.2473 8.35324 12.2115 7.95027 11.9419C7.58659 11.6985 7.00295 11.4698 6.49289 11.7616C6.01751 12.0336 5.77164 12.7135 6.22287 13.1882ZM23.7803 13.1882C22.7296 14.2935 21.0179 14.5836 19.633 13.7912C18.2481 12.9988 17.6308 11.3761 18.0513 9.91018C18.2319 9.28063 18.9426 9.1481 19.418 9.4201C19.928 9.71194 20.0266 10.331 20.0011 10.7679C19.9728 11.2519 20.2145 11.7339 20.6632 11.9906C21.1119 12.2473 21.6499 12.2115 22.0529 11.9419C22.4166 11.6985 23.0002 11.4698 23.5103 11.7616C23.9856 12.0336 24.2315 12.7135 23.7803 13.1882ZM20.9206 23.354C17.5599 19.9841 12.0907 19.9841 8.73006 23.3542C8.28699 23.7989 7.56687 23.7988 7.12388 23.354C6.6813 22.91 6.68136 22.1908 7.12406 21.7469C9.18025 19.6849 11.9169 18.5481 14.8254 18.5481C17.7339 18.5481 20.4702 19.6845 22.5268 21.7469C22.9695 22.1908 22.9695 22.91 22.527 23.354M20.9206 23.354C21.3636 23.7987 22.0839 23.7987 22.527 23.354H20.9206Z" fill="#FF558B"/>
</svg>
