<svg width="18" height="18" viewBox="0 0 18 18" fill="none" xmlns="http://www.w3.org/2000/svg">
<path fill-rule="evenodd" clip-rule="evenodd" d="M5.19054 8.51771C5.06265 8.64558 4.99078 8.8191 4.99078 8.99999V12.3272C4.99078 12.7039 5.29616 13.0092 5.67285 13.0092H9.00002C9.1809 13.0092 9.35442 12.9373 9.48231 12.8094L17.8002 4.49154C18.0666 4.22517 18.0666 3.7933 17.8002 3.52694L14.4731 0.19977C14.2067 -0.0665881 13.7748 -0.0665909 13.5085 0.199767L5.19054 8.51771ZM6.35492 9.2825L13.9908 1.64666L16.3534 4.00924L8.71751 11.6451H6.35492V9.2825ZM1.65164 3.31522L1.65165 3.31522C1.83572 3.13116 2.08537 3.02774 2.34568 3.02774H6.78745C7.16415 3.02774 7.46952 2.72237 7.46952 2.34567C7.46952 1.96898 7.16415 1.6636 6.78745 1.6636H2.34568C1.72358 1.6636 1.12695 1.91073 0.687057 2.35063C0.247161 2.79053 3.05176e-05 3.38715 3.05176e-05 4.00926V15.6543C3.05176e-05 16.2765 0.24716 16.8731 0.687056 17.313C1.12696 17.7528 1.72358 18 2.34568 18H13.9908C14.6129 18 15.2095 17.7528 15.6494 17.313C16.0893 16.8731 16.3364 16.2765 16.3364 15.6543V11.2126C16.3364 10.8359 16.0311 10.5305 15.6544 10.5305C15.2776 10.5305 14.9723 10.8359 14.9723 11.2126V15.6543C14.9723 15.9147 14.8688 16.1643 14.6848 16.3484C14.5008 16.5324 14.2511 16.6359 13.9908 16.6359H2.34568C2.08535 16.6359 1.83571 16.5324 1.65166 16.3484L1.74937 16.2506L1.65165 16.3484C1.46758 16.1643 1.36417 15.9146 1.36417 15.6543V4.00926C1.36417 3.74894 1.46758 3.49929 1.65164 3.31522Z" fill="#818894"/>
</svg>
