<svg width="30" height="30" viewBox="0 0 30 30" fill="none" xmlns="http://www.w3.org/2000/svg">
<path fill-rule="evenodd" clip-rule="evenodd" d="M0 15C0 6.72886 6.72886 0 15 0C23.2711 0 30 6.72886 30 15C30 23.2711 23.2711 30 15 30C6.72886 30 0 23.2711 0 15ZM9.4013 7.69995C10.9969 7.69995 12.3385 8.80182 12.7016 10.283C12.8575 10.9191 12.3064 11.3871 11.7587 11.3871C11.1711 11.3871 10.7781 10.8987 10.5833 10.5069C10.3674 10.0727 9.91824 9.7744 9.4013 9.7744C8.88437 9.7744 8.43519 10.0727 8.21933 10.5069C8.02452 10.8987 7.63154 11.3871 7.04389 11.3871C6.49619 11.3871 5.94514 10.9191 6.10105 10.283C6.46408 8.80182 7.80575 7.69995 9.4013 7.69995ZM17.1281 10.283C17.4912 8.80182 18.8328 7.69995 20.4284 7.69995C22.024 7.69995 23.3656 8.80182 23.7287 10.283C23.8846 10.9191 23.3335 11.3871 22.7858 11.3871C22.1982 11.3871 21.8052 10.8987 21.6104 10.5069C21.3945 10.0727 20.9453 9.7744 20.4284 9.7744C19.9115 9.7744 19.4623 10.0727 19.2464 10.5069C19.0516 10.8987 18.6586 11.3871 18.071 11.3871C17.5233 11.3871 16.9722 10.9191 17.1281 10.283ZM21.6089 16.8H8.39116C7.79791 16.8 7.30005 17.2613 7.30005 17.8496C7.30005 21.9118 10.7631 25.2 15 25.2C19.237 25.2 22.7 21.9118 22.7 17.8496C22.7 17.2614 22.2027 16.8 21.6089 16.8Z" fill="#FF558B"/>
</svg>
