<svg width="30" height="30" viewBox="0 0 30 30" fill="none" xmlns="http://www.w3.org/2000/svg">
<path fill-rule="evenodd" clip-rule="evenodd" d="M0 15C0 6.72886 6.72886 0 15 0C23.2711 0 30 6.72886 30 15C30 23.2711 23.2711 30 15 30C6.72886 30 0 23.2711 0 15ZM6.65002 11.6114C6.65002 10.2311 7.76592 9.11145 9.14334 9.11145C10.5208 9.11145 11.6367 10.2311 11.6367 11.6114C11.6367 12.9916 10.5208 14.1113 9.14334 14.1113C7.76592 14.1113 6.65002 12.9916 6.65002 11.6114ZM18.01 11.6114C18.01 10.2311 19.1259 9.11145 20.5033 9.11145C21.8807 9.11145 22.9967 10.2311 22.9967 11.6114C22.9967 12.9916 21.8807 14.1113 20.5033 14.1113C19.1259 14.1113 18.01 12.9916 18.01 11.6114ZM20.9206 23.354C17.5599 19.9841 12.0907 19.9841 8.73006 23.3542C8.28699 23.7989 7.56687 23.7988 7.12388 23.354C6.6813 22.91 6.68136 22.1908 7.12406 21.7469C9.18025 19.6849 11.9169 18.5481 14.8254 18.5481C17.7339 18.5481 20.4702 19.6845 22.5268 21.7469C22.9695 22.1908 22.9695 22.91 22.527 23.354M20.9206 23.354C21.3636 23.7987 22.0839 23.7987 22.527 23.354H20.9206Z" fill="#FF558B"/>
</svg>
