<svg width="30" height="30" viewBox="0 0 30 30" fill="none" xmlns="http://www.w3.org/2000/svg">
<path fill-rule="evenodd" clip-rule="evenodd" d="M15 0C6.72886 0 0 6.72886 0 15C0 23.2711 6.72886 30 15 30C23.2711 30 30 23.2711 30 15C30 6.72886 23.2711 0 15 0ZM10.1448 6.02983C10.2929 6.09354 10.3808 6.24638 10.3608 6.40514L10.0483 8.88335H12.9091C13.0502 8.88335 13.1785 8.96425 13.2384 9.0909C13.2982 9.21754 13.2787 9.36707 13.1884 9.4745L9.55207 13.7995C9.44872 13.9224 9.276 13.9631 9.12792 13.8994C8.97984 13.8357 8.89187 13.6828 8.91189 13.5241L9.22443 11.0459H6.36364C6.22254 11.0459 6.09418 10.965 6.03434 10.8383C5.97449 10.7117 5.99396 10.5621 6.08429 10.4547L9.72063 6.1297C9.82398 6.00679 9.9967 5.96612 10.1448 6.02983ZM20.3608 6.40514C20.3808 6.24638 20.2929 6.09354 20.1448 6.02983C19.9967 5.96612 19.824 6.00679 19.7206 6.1297L16.0843 10.4547C15.994 10.5621 15.9745 10.7117 16.0343 10.8383C16.0942 10.965 16.2225 11.0459 16.3636 11.0459H19.2244L18.9119 13.5241C18.8919 13.6828 18.9798 13.8357 19.1279 13.8994C19.276 13.9631 19.4487 13.9224 19.5521 13.7995L23.1884 9.4745C23.2787 9.36707 23.2982 9.21754 23.2384 9.0909C23.1785 8.96425 23.0502 8.88335 22.9091 8.88335H20.0483L20.3608 6.40514ZM19.999 20.5C19.9997 20.4897 20 20.4794 20 20.469C20 18.0047 17.7571 16 15 16C12.2429 16 10 18.0047 10 20.469C10 20.4794 10.0003 20.4898 10.001 20.5C10.0003 20.5103 10 20.5206 10 20.531C10 22.9953 12.2429 25 15 25C17.7571 25 20 22.9953 20 20.531C20 20.5206 19.9997 20.5102 19.999 20.5Z" fill="#FF558B"/>
</svg>
